<svg width="39" height="54" viewBox="0 0 39 54" fill="none" xmlns="http://www.w3.org/2000/svg">
<path d="M26.3357 28.4663V11.1502L23.2717 12.291V4.83112L15.5409 0.5625V13.4943L17.1439 12.8974V3.40571L21.6688 5.94594V12.888L20.2079 13.4319V6.89875L18.6047 5.98096V14.0288L12.4769 16.3103V23.3064L9.41309 22.1658V38.2924H20.2079V29.6071L18.6047 29.0102V36.5817H11.0163V24.4741L15.5409 26.1588V33.1605H14.0801V27.3257L12.4769 26.7285V34.8712H17.1439V26.7556L27.7965 30.7219V36.5817H23.2717V32.4586L24.7325 33.0023V34.8712H26.3357V31.8886L21.6688 30.151V31.8617V38.2924H29.3997V29.6071L26.3357 28.4663ZM24.7325 27.8692L20.2079 26.1847V18.5647L21.6688 18.0208V25.0603L23.2717 25.6574V15.7133L18.6047 17.4509V25.5875L14.0801 23.9032V17.4249L15.5409 16.881V22.779L17.1439 23.3758V16.2843L24.7325 13.4587V27.8692Z" fill="#7839EE"/>
<path d="M1.02592 51.7924V45.247H3.60831C4.10263 45.247 4.5245 45.3354 4.87393 45.5122C5.2255 45.687 5.4929 45.9352 5.67614 46.2569C5.86151 46.5765 5.95419 46.9526 5.95419 47.3851C5.95419 47.8198 5.86044 48.1937 5.67294 48.5069C5.48544 48.818 5.21378 49.0566 4.85795 49.2228C4.50426 49.389 4.07599 49.4721 3.57315 49.4721H1.84411V48.3599H3.34943C3.61364 48.3599 3.8331 48.3237 4.00781 48.2512C4.18253 48.1788 4.3125 48.0701 4.39773 47.9252C4.48509 47.7803 4.52876 47.6003 4.52876 47.3851C4.52876 47.1678 4.48509 46.9845 4.39773 46.8354C4.3125 46.6862 4.18146 46.5733 4.00462 46.4966C3.8299 46.4178 3.60938 46.3784 3.34304 46.3784H2.4098V51.7924H1.02592ZM4.56072 48.8137L6.1875 51.7924H4.6598L3.06818 48.8137H4.56072ZM6.93217 51.7924V45.247H11.3427V46.3879H8.31605V47.9476H11.1158V49.0886H8.31605V50.6514H11.3555V51.7924H6.93217ZM17.9177 45.247V51.7924H16.7224L13.8747 47.6727H13.8268V51.7924H12.4429V45.247H13.6574L16.4827 49.3634H16.5402V45.247H17.9177ZM18.8118 46.3879V45.247H24.1875V46.3879H22.1836V51.7924H20.8157V46.3879H18.8118ZM26.4567 45.247V51.7924H25.0728V45.247H26.4567ZM27.5953 51.7924V45.247H31.9291V46.3879H28.9791V47.9476H31.6414V49.0886H28.9791V51.7924H27.5953ZM32.4764 45.247H34.0265L35.519 48.0659H35.5829L37.0755 45.247H38.6255L36.2381 49.4785V51.7924H34.8638V49.4785L32.4764 45.247Z" fill="black"/>
</svg>
