<svg width="59" height="80" viewBox="0 0 59 80" fill="none" xmlns="http://www.w3.org/2000/svg">
<path d="M39.5036 41.8557V15.8816L34.9076 17.5928V6.40293L23.3113 0V19.3977L25.7159 18.5023V4.26482L32.5033 8.07516V18.4882L30.3119 19.304V9.50437L27.907 8.12769V20.1994L18.7153 23.6217V34.1159L14.1196 32.4049V56.5949H30.3119V43.5669L27.907 42.6715V54.0288H16.5245V35.8674L23.3113 38.3945V48.897H21.1202V40.1447L18.7153 39.2491V51.463H25.7159V39.2896L41.6947 45.2392V54.0288H34.9076V47.8442L37.0987 48.6598V51.463H39.5036V46.9891L32.5033 44.3828V46.9488V56.5949H44.0995V43.5669L39.5036 41.8557ZM37.0987 40.96L30.3119 38.4332V27.0033L32.5033 26.1874V36.7467L34.9076 37.6424V22.7262L27.907 25.3326V37.5376L21.1202 35.011V25.2936L23.3113 24.4778V33.3247L25.7159 34.2199V23.5826L37.0987 19.3444V40.96Z" fill="#7839EE"/>
<path d="M1.53888 77.595V67.7768H5.41246C6.15394 67.7768 6.78675 67.9094 7.3109 68.1747C7.83825 68.4368 8.23935 68.8091 8.5142 69.2917C8.79226 69.7711 8.93129 70.3352 8.93129 70.984C8.93129 71.636 8.79066 72.1969 8.50941 72.6667C8.22816 73.1333 7.82067 73.4913 7.28693 73.7406C6.75639 73.9899 6.11399 74.1145 5.35973 74.1145H2.76616V72.4462H5.02415C5.42045 72.4462 5.74964 72.3918 6.01172 72.2832C6.27379 72.1745 6.46875 72.0115 6.59659 71.7942C6.72763 71.5769 6.79315 71.3068 6.79315 70.984C6.79315 70.658 6.72763 70.3831 6.59659 70.1594C6.46875 69.9357 6.27219 69.7663 6.00692 69.6513C5.74485 69.533 5.41406 69.4739 5.01456 69.4739H3.6147V77.595H1.53888ZM6.84109 73.1269L9.28125 77.595H6.9897L4.60227 73.1269H6.84109ZM10.3983 77.595V67.7768H17.014V69.4883H12.4741V71.8277H16.6737V73.5392H12.4741V75.8835H17.0332V77.595H10.3983ZM26.8766 67.7768V77.595H25.0836L20.8121 71.4155H20.7402V77.595H18.6644V67.7768H20.4861L24.724 73.9515H24.8103V67.7768H26.8766ZM28.2177 69.4883V67.7768H36.2812V69.4883H33.2754V77.595H31.2235V69.4883H28.2177ZM39.685 67.7768V77.595H37.6092V67.7768H39.685ZM41.3929 77.595V67.7768H47.8936V69.4883H43.4687V71.8277H47.4621V73.5392H43.4687V77.595H41.3929ZM48.7146 67.7768H51.0397L53.2785 72.0051H53.3744L55.6132 67.7768H57.9383L54.3572 74.1241V77.595H52.2957V74.1241L48.7146 67.7768Z" fill="white"/>
</svg>
